<?xml version="1.0" encoding="UTF-8" standalone="no"?>
<!DOCTYPE svg PUBLIC "-//W3C//DTD SVG 1.1//EN" "http://www.w3.org/Graphics/SVG/1.1/DTD/svg11.dtd">
<svg width="100%" height="100%" viewBox="0 0 237 237" version="1.1" xmlns="http://www.w3.org/2000/svg" xmlns:xlink="http://www.w3.org/1999/xlink" xml:space="preserve" xmlns:serif="http://www.serif.com/" style="fill-rule:evenodd;clip-rule:evenodd;stroke-linejoin:round;stroke-miterlimit:2;">
    <g transform="matrix(1.23034,0,0,1,-20.9179,-5.25509)">
        <path d="M104.823,45.353C106.57,41.859 109.666,39.731 113,39.731C116.334,39.731 119.43,41.859 121.177,45.353C137.849,78.698 175.657,154.314 193,189C194.822,192.645 194.9,197.216 193.203,200.951C191.507,204.686 188.301,207 184.824,207C150.801,207 75.199,207 41.176,207C37.699,207 34.493,204.686 32.797,200.951C31.1,197.216 31.178,192.645 33,189C50.343,154.314 88.151,78.698 104.823,45.353Z"/>
    </g>
</svg>
